<svg width="24" height="24" viewBox="0 0 24 24" fill="none" xmlns="http://www.w3.org/2000/svg">
<path fill-rule="evenodd" clip-rule="evenodd" d="M4 4.99998H6V3.74998C6 3.19769 6.44772 2.74998 7 2.74998C7.55229 2.74998 8 3.19769 8 3.74998V4.99998H16V3.74998C16 3.19769 16.4477 2.74998 17 2.74998C17.5523 2.74998 18 3.19769 18 3.74998V4.99998H20C21.1046 4.99998 22 5.89541 22 6.99998V19C22 20.1046 21.1046 21 20 21H4C2.89543 21 2 20.1046 2 19V6.99998C2 5.89541 2.89543 4.99998 4 4.99998ZM4 19L4 11H20V19H4ZM20 6.99998V8.99998H4V6.99998H20Z" fill="black"/>
</svg>
