<svg width="24" height="24" viewBox="0 0 24 24" fill="none" xmlns="http://www.w3.org/2000/svg">
<path fill-rule="evenodd" clip-rule="evenodd" d="M12 1C12 1 11.3892 1.37018 10.5 2.06521C8.12122 3.92455 3.75 8.10874 3.75 13.75C3.75 18.3063 7.44365 22 12 22C16.5563 22 20.25 18.3063 20.25 13.75C20.25 11.0734 18.9754 8.69454 17 7.18725C16.5362 6.83332 16.0337 6.52745 15.5 6.27706V7.75C15.5 7.82404 15.4954 7.897 15.4865 7.96862C15.3789 8.83194 14.6425 9.5 13.75 9.5C12.7835 9.5 12 8.7165 12 7.75V1ZM8.97364 5.49002C9.49423 4.92999 10.016 4.43517 10.5 4.01151V7.75C10.5 9.54493 11.9551 11 13.75 11C15.1143 11 16.2822 10.1594 16.7641 8.96785C17.9917 10.1909 18.75 11.8826 18.75 13.75C18.75 17.4779 15.7279 20.5 12 20.5C8.27208 20.5 5.25 17.4779 5.25 13.75C5.25 10.4186 7.02937 7.58159 8.97364 5.49002Z" fill="black"/>
</svg>
