<svg width="24" height="24" viewBox="0 0 24 24" fill="none" xmlns="http://www.w3.org/2000/svg">
<path fill-rule="evenodd" clip-rule="evenodd" d="M20.7341 4.95282C19.6061 3.82677 18.0774 3.19433 16.4835 3.19434C14.8576 3.20205 13.2986 3.84224 12.1365 4.97934L12 5.10811L11.8635 4.97934C10.7014 3.84224 9.14237 3.20205 7.51651 3.19434C5.92265 3.19433 4.39392 3.82677 3.2659 4.95282C2.13789 6.07886 1.50278 7.60649 1.5 9.20035C1.5 12.4344 2.6865 13.9779 7.98901 18.1674L12 21.2806L16.011 18.1674C21.3135 13.9779 22.5 12.4344 22.5 9.20035C22.4972 7.60649 21.8621 6.07886 20.7341 4.95282ZM10.8144 6.05147L10.8242 6.06102L12 7.17035L13.1758 6.06102L13.1856 6.05147C14.0683 5.18775 15.2522 4.70112 16.487 4.69434C17.6823 4.69527 18.8284 5.16993 19.6744 6.0144C20.5209 6.8595 20.9977 8.00591 21 9.20207C20.9998 10.5692 20.7671 11.4351 20.0326 12.4409C19.2115 13.5652 17.7505 14.8811 15.0861 16.9865L12 19.3818L8.91389 16.9864C6.24947 14.8811 4.7885 13.5652 3.96744 12.4409C3.23286 11.435 3.00015 10.5691 3 9.20171C3.00242 8.00568 3.47915 6.85941 4.32564 6.0144C5.17158 5.16993 6.31775 4.69527 7.51296 4.69434C8.74783 4.70112 9.93174 5.18775 10.8144 6.05147Z" fill="black"/>
</svg>
