<svg width="24" height="24" viewBox="0 0 24 24" fill="none" xmlns="http://www.w3.org/2000/svg">
<g clip-path="url(#clip0_51_55)">
<path fill-rule="evenodd" clip-rule="evenodd" d="M12 14C14.2091 14 16 12.2091 16 10C16 7.79086 14.2091 6 12 6C9.79086 6 8 7.79086 8 10C8 12.2091 9.79086 14 12 14ZM12 12.5C13.3807 12.5 14.5 11.3807 14.5 10C14.5 8.61929 13.3807 7.5 12 7.5C10.6193 7.5 9.5 8.61929 9.5 10C9.5 11.3807 10.6193 12.5 12 12.5Z" fill="black"/>
<path fill-rule="evenodd" clip-rule="evenodd" d="M21 10C21 16.4706 12 24 12 24C12 24 3 16.4706 3 10C3 5.02944 7.02944 1 12 1C16.9706 1 21 5.02944 21 10ZM19.5 10C19.5 11.2847 19.0476 12.7226 18.2641 14.223C17.4868 15.7116 16.4327 17.1684 15.3492 18.4643C14.2694 19.7559 13.1853 20.8582 12.3695 21.6384C12.2388 21.7634 12.1153 21.8799 12 21.9873C11.8847 21.8799 11.7612 21.7634 11.6305 21.6384C10.8147 20.8582 9.73063 19.7559 8.65079 18.4643C7.56728 17.1684 6.51322 15.7116 5.73588 14.223C4.95244 12.7226 4.5 11.2847 4.5 10C4.5 5.85787 7.85787 2.5 12 2.5C16.1421 2.5 19.5 5.85787 19.5 10Z" fill="black"/>
</g>
<defs>
<clipPath id="clip0_51_55">
<rect width="24" height="24" fill="white"/>
</clipPath>
</defs>
</svg>
