<svg width="24" height="24" viewBox="0 0 24 24" fill="none" xmlns="http://www.w3.org/2000/svg">
<path fill-rule="evenodd" clip-rule="evenodd" d="M16.5 5.5C16.5 7.72975 14.8783 9.58072 12.75 9.93778V17.5H11.25V9.93778C9.12172 9.58072 7.5 7.72975 7.5 5.5C7.5 3.01472 9.51472 1 12 1C14.4853 1 16.5 3.01472 16.5 5.5ZM12 8.5C13.6569 8.5 15 7.15686 15 5.5C15 3.84315 13.6569 2.5 12 2.5C10.3431 2.5 9 3.84315 9 5.5C9 7.15686 10.3431 8.5 12 8.5Z" fill="black"/>
<path d="M3.00313 17.3803C3.00105 17.42 3 17.46 3 17.5C3 19.9853 7.02944 22 12 22C16.9706 22 21 19.9853 21 17.5C21 17.2551 20.9609 17.0147 20.8856 16.7804C20.3584 15.1404 18.0586 13.7966 15 13.2561V14.7818C16.0429 14.9867 16.9577 15.2919 17.6931 15.6597C19.1624 16.3943 19.5 17.1316 19.5 17.5C19.5 17.8684 19.1624 18.6057 17.6931 19.3403C16.3136 20.0301 14.3029 20.5 12 20.5C9.69709 20.5 7.68636 20.0301 6.30686 19.3403C4.83764 18.6057 4.5 17.8684 4.5 17.5C4.5 17.4079 4.5211 17.2927 4.57571 17.1603C4.73954 16.7631 5.20494 16.2106 6.30686 15.6597C7.04229 15.2919 7.95713 14.9867 9 14.7818V13.2561C5.57586 13.8612 3.10278 15.473 3.00313 17.3803Z" fill="black"/>
</svg>
