<svg width="24" height="24" viewBox="0 0 24 24" fill="none" xmlns="http://www.w3.org/2000/svg">
<path fill-rule="evenodd" clip-rule="evenodd" d="M2 21L8.40139 19.3997C9.51804 19.7874 10.7314 20 12 20C17.5228 20 22 15.9706 22 11C22 6.02944 17.5228 2 12 2C6.47715 2 2 6.02944 2 11C2 12.6564 2.49721 14.2084 3.36463 15.5415L2 21ZM4.97837 15.2712L4.62191 14.7234C3.90353 13.6193 3.5 12.3493 3.5 11C3.5 7.00261 7.15301 3.5 12 3.5C16.847 3.5 20.5 7.00261 20.5 11C20.5 14.9974 16.847 18.5 12 18.5C10.8994 18.5 9.85233 18.3156 8.89345 17.9827L8.47121 17.836L4.06155 18.9384L4.97837 15.2712Z" fill="black"/>
</svg>
