<svg width="24" height="24" viewBox="0 0 24 24" fill="none" xmlns="http://www.w3.org/2000/svg">
<path fill-rule="evenodd" clip-rule="evenodd" d="M11.75 8.30769V17.75C11.75 20.0972 9.84721 22 7.5 22C5.15279 22 3.25 20.0972 3.25 17.75C3.25 15.4028 5.15279 13.5 7.5 13.5C8.54875 13.5 9.50878 13.8799 10.25 14.5095V2L20 4V10L11.75 8.30769ZM11.75 3.83893L18.5 5.22354V8.16108L11.75 6.77646V3.83893ZM10.25 17.75C10.25 16.2312 9.01878 15 7.5 15C5.98122 15 4.75 16.2312 4.75 17.75C4.75 19.2688 5.98122 20.5 7.5 20.5C9.01878 20.5 10.25 19.2688 10.25 17.75Z" fill="black"/>
</svg>
