<svg width="24" height="24" viewBox="0 0 24 24" fill="none" xmlns="http://www.w3.org/2000/svg">
<g clip-path="url(#clip0_51_652)">
<path d="M12 14.4999C13.3807 14.4999 14.5 13.3806 14.5 11.9999C14.5 10.6192 13.3807 9.49988 12 9.49988C10.6193 9.49988 9.5 10.6192 9.5 11.9999C9.5 13.3806 10.6193 14.4999 12 14.4999Z" fill="black"/>
<path fill-rule="evenodd" clip-rule="evenodd" d="M20.9692 11.2499C20.6085 6.87753 17.1224 3.3914 12.75 3.03068V-0.00012207L11.25 -0.000122005V3.03068C6.87765 3.3914 3.39152 6.87753 3.03081 11.2499H0V12.7499H3.03081C3.39152 17.1222 6.87765 20.6084 11.25 20.9691V23.9999H12.75V20.9691C17.1223 20.6084 20.6085 17.1222 20.9692 12.7499H24V11.2499H20.9692ZM12 19.4999C16.1421 19.4999 19.5 16.142 19.5 11.9999C19.5 7.85774 16.1421 4.49988 12 4.49988C7.85787 4.49988 4.5 7.85774 4.5 11.9999C4.5 16.142 7.85787 19.4999 12 19.4999Z" fill="black"/>
</g>
<defs>
<clipPath id="clip0_51_652">
<rect width="24" height="24" fill="white"/>
</clipPath>
</defs>
</svg>
