<svg width="24" height="24" viewBox="0 0 24 24" fill="none" xmlns="http://www.w3.org/2000/svg">
<g clip-path="url(#clip0_36_1113)">
<path d="M11.25 12.433V9H12.75V11.567L15.2978 13.038L14.5478 14.337L11.25 12.433Z" fill="black"/>
<path fill-rule="evenodd" clip-rule="evenodd" d="M16.5 0L17.4444 6.1383C19.0164 7.59912 20 9.6847 20 12C20 14.3153 19.0164 16.4009 17.4444 17.8617L16.5 24H7.5L6.55565 17.8617C4.98356 16.4009 4 14.3153 4 12C4 9.6847 4.98356 7.59912 6.55565 6.1383L7.5 0H16.5ZM8.25974 4.92638L8.78688 1.5H15.2131L15.7403 4.92638C14.6241 4.33496 13.3512 4 12 4C10.6488 4 9.37592 4.33496 8.25974 4.92638ZM8.25974 19.0736L8.78688 22.5H15.2131L15.7403 19.0736C14.6241 19.665 13.3512 20 12 20C10.6488 20 9.37592 19.665 8.25974 19.0736ZM18.496 11.7703C18.4854 11.4645 18.4537 11.164 18.4022 10.8704C17.8675 7.819 15.2046 5.5 12 5.5C8.46894 5.5 5.59549 8.31562 5.50233 11.8242C5.50078 11.8826 5.5 11.9412 5.5 12C5.5 12.0537 5.50065 12.1073 5.50194 12.1607C5.50285 12.1982 5.50408 12.2357 5.50563 12.2731C5.64878 15.7363 8.50165 18.5 12 18.5C15.5164 18.5 18.3806 15.7078 18.4964 12.2196C18.4988 12.1467 18.5 12.0735 18.5 12C18.5 11.9231 18.4987 11.8465 18.496 11.7703Z" fill="black"/>
</g>
<defs>
<clipPath id="clip0_36_1113">
<rect width="24" height="24" fill="white"/>
</clipPath>
</defs>
</svg>
